# xmcd
#
# Track frame offsets:
# 150
# 12777
# 25077
# 37240
# 49075
# 61005
# 73852
# 87930
#
# Disc length: 1310 seconds
#
#
# Revision: 0
# Processed by: cddbd v1.5.1PL2 Copyright (c) Steve Scherf et al.
# Submitted via: FreeRIP 2.40 
#
DISCID=62051c08
DTITLE=Wynonie Harris - Good Rockin' Tonight Greatest Hits
DYEAR=1900
DGENRE=Blues
TTITLE0=Good Rockin' Tonight
TTITLE1=I Like My Baby's Pudding
TTITLE2=Good Morning Mr. Judge
TTITLE3=Grandma Plays The Numbers
TTITLE4=Sittin' On It All The Time
TTITLE5=Lolly Pop Mama
TTITLE6=I Want My Fanny Brown
TTITLE7=Shake That Thing
EXTD=
EXTT0=
EXTT1=
EXTT2=
EXTT3=
EXTT4=
EXTT5=
EXTT6=
EXTT7=
PLAYORDER=
